<?xml version="1.0" encoding="UTF-8"?>
<svg version="1.1" xmlns="http://www.w3.org/2000/svg" width="551" height="453">
<path d="M0 0 C17.80678412 3.46243025 34.76779677 8.80926757 51 17 C51.71510742 17.35433105 52.43021484 17.70866211 53.16699219 18.07373047 C93.86050138 38.31929938 126.21294084 72.37921628 140.98657227 115.78930664 C141.66960158 117.8559021 142.33725451 119.92682223 143 122 C143.38027344 123.16015625 143.76054688 124.3203125 144.15234375 125.515625 C160.66539451 179.10514823 149.5872115 242.20322437 124.45556641 291.27294922 C118.54247699 302.35131366 111.20501691 312.40756746 103.3125 322.14453125 C101.92919109 323.85263735 100.5814287 325.59200709 99.3125 327.38671875 C98.879375 327.91910156 98.44625 328.45148438 98 329 C97.34 329 96.68 329 96 329 C95.64228516 329.84498047 95.64228516 329.84498047 95.27734375 330.70703125 C90.44048988 339.38970165 80.67845839 345.94301443 73 352 C72.09507812 352.75667969 71.19015625 353.51335937 70.2578125 354.29296875 C5.92397657 406.59620671 -80.9635077 410.46653091 -159.9052124 410.1373291 C-165.46478698 410.11644593 -171.02438145 410.107647 -176.58398438 410.09765625 C-187.38937285 410.07654542 -198.19467651 410.04265775 -209 410 C-207.39696616 406.00655362 -204.60019367 403.33836718 -201.58813477 400.37695312 C-201.03670807 399.82684067 -200.48528137 399.27672821 -199.91714478 398.70994568 C-198.09645428 396.89573682 -196.26889523 395.08860814 -194.44140625 393.28125 C-193.17298938 392.01910583 -191.90508782 390.7564436 -190.63768005 389.49328613 C-187.30084082 386.16974526 -183.95848273 382.85181507 -180.61450195 379.53546143 C-175.26450288 374.22858697 -169.92118189 368.91501018 -164.58112907 363.59812927 C-162.71617771 361.74338587 -160.84784145 359.89210299 -158.97914124 358.0411377 C-157.83306454 356.90189098 -156.68709815 355.76253328 -155.54125977 354.62304688 C-155.02219559 354.11072006 -154.50313141 353.59839325 -153.96833801 353.07054138 C-151.90667213 351.01537407 -150.00036349 349.00049654 -148.27867126 346.64855957 C-147.64572899 345.83252258 -147.64572899 345.83252258 -147 345 C-146.34 345 -145.68 345 -145 345 C-144.731875 344.401875 -144.46375 343.80375 -144.1875 343.1875 C-143.00082594 341.00152146 -141.90400887 339.58667406 -140 338 C-139.34 338 -138.68 338 -138 338 C-137.73363613 337.40845784 -137.46727226 336.81691568 -137.19283676 336.20744801 C-135.97278401 333.94963445 -134.72811502 332.48398904 -132.91461182 330.68083191 C-132.28105774 330.04597366 -131.64750366 329.41111542 -130.99475098 328.75701904 C-129.95369202 327.72910248 -129.95369202 327.72910248 -128.89160156 326.68041992 C-128.1596759 325.9498085 -127.42775024 325.21919708 -126.67364502 324.46644592 C-124.25053153 322.04982812 -121.82052385 319.64026212 -119.390625 317.23046875 C-117.70341035 315.54952616 -116.01671093 313.86806628 -114.33050537 312.18611145 C-109.88511842 307.754038 -105.43420828 303.32755631 -100.98168945 298.90264893 C-93.86801297 291.83204614 -86.7609439 284.75481862 -79.65721893 277.67421913 C-77.17916658 275.20635192 -74.69770579 272.7419508 -72.21588135 270.27787781 C-70.68579517 268.75462486 -69.15582105 267.23125935 -67.62597656 265.70776367 C-66.94003418 265.02855865 -66.2540918 264.34935364 -65.54736328 263.64956665 C-61.89361467 260.00440604 -58.46841694 256.28964594 -55.23971176 252.26027393 C-54.62605444 251.63643834 -54.62605444 251.63643834 -54 251 C-53.34 251 -52.68 251 -52 251 C-52 250.34 -52 249.68 -52 249 C-50.37439685 247.27160699 -48.7130915 245.63907134 -47 244 C-45.72118989 242.72668182 -44.44538712 241.45033969 -43.17179871 240.17179871 C-16.11453247 213.11453247 10.94273376 186.05726624 38 159 C-5.56 158.67 -49.12 158.34 -94 158 C-87.10310151 145.3556861 -87.10310151 145.3556861 -83.57421875 139.453125 C-82.98638359 138.46442413 -82.98638359 138.46442413 -82.38667297 137.45574951 C-81.15548093 135.38604885 -79.92153187 133.31800839 -78.6875 131.25 C-77.87547338 129.88552238 -77.0636237 128.52093945 -76.25195312 127.15625 C-68.43776908 114.02488564 -60.57597318 100.92332137 -52.62695312 87.87313843 C-46.73597072 78.19844963 -40.8959566 68.49796352 -35.1796875 58.71875 C-31.91506718 53.13552377 -28.57332239 47.59865181 -25.23779297 42.05761719 C-22.88397984 38.14480909 -20.53630763 34.22831408 -18.1875 30.3125 C-17.17580533 28.62628763 -16.16408629 26.94008989 -15.15234375 25.25390625 C-14.6404248 24.40070801 -14.12850586 23.54750977 -13.60107422 22.66845703 C-9.06738281 15.11230469 -4.53369141 7.55615234 0 0 Z " fill="#004B95" transform="translate(382,25)"/>
<path d="M0 0 C54.45 0 108.9 0 165 0 C163.60862897 4.17411308 162.43833894 7.31754934 160.3828125 11.0625 C159.60562866 12.48731689 159.60562866 12.48731689 158.81274414 13.94091797 C158.25578857 14.95041504 157.69883301 15.95991211 157.125 17 C156.54419678 18.06234863 155.96339355 19.12469727 155.36499023 20.21923828 C153.58068066 23.48171283 151.79038221 26.74085515 150 30 C148.01816124 33.62354359 146.04023196 37.24921369 144.0625 40.875 C143.33365601 42.20942139 143.33365601 42.20942139 142.59008789 43.57080078 C138.12292521 51.75586146 133.70278764 59.96595895 129.28588867 68.17822266 C121.76132563 82.16705528 114.2073915 96.13995181 106.58666992 110.07666016 C101.53345257 119.31880648 96.53009823 128.58659085 91.5625 137.875 C85.27046606 149.63962903 78.94188139 161.38386382 72.57177734 173.10644531 C70.96909366 176.05689685 69.36931124 179.00891073 67.76953125 181.9609375 C63.13626305 190.49691709 58.46847289 198.9849183 53.515625 207.33984375 C51.36234497 211.11918318 49.44775942 215.00300641 47.5546875 218.91796875 C45.49112119 223.00880749 43.22513872 226.9947503 41 231 C74.99 231.33 108.98 231.66 144 232 C142.6608791 236.01736271 141.3679578 239.56925598 139.6015625 243.359375 C138.89193359 244.88884766 138.89193359 244.88884766 138.16796875 246.44921875 C137.65878906 247.53847656 137.14960938 248.62773437 136.625 249.75 C135.53376984 252.09891916 134.4426264 254.44787861 133.3515625 256.796875 C132.78815052 258.00719152 132.22467396 259.21747799 131.66113281 260.42773438 C129.09504014 265.94611591 126.54786178 271.47318395 124 277 C122.99491577 279.17844268 121.98970723 281.35682801 120.984375 283.53515625 C120.48873047 284.60910645 119.99308594 285.68305664 119.48242188 286.78955078 C118.03628377 289.92142101 116.58867523 293.05260722 115.140625 296.18359375 C109.06904907 309.31684463 103.04064757 322.46912368 97.03250122 335.63146973 C91.92936938 346.80847488 86.7824023 357.96387008 81.59765625 369.10327148 C77.20680243 378.54044336 72.86330374 387.99877733 68.53515625 397.46484375 C65.70273741 403.64903094 62.85042028 409.82408939 60 416 C11.16 416 -37.68 416 -88 416 C-82.24106464 387.2053232 -82.24106464 387.2053232 -79.9609375 376.3984375 C-79.68367013 375.08012976 -79.40648266 373.7618052 -79.12936401 372.44346619 C-78.3730606 368.84765246 -77.61494113 365.25222396 -76.8563385 361.65689468 C-76.36538127 359.32940022 -75.87494691 357.00179611 -75.38464355 354.67416382 C-70.4048525 331.036369 -65.39048308 307.40592601 -60.3671875 283.77734375 C-60.14933224 282.75258485 -60.14933224 282.75258485 -59.92707586 281.70712376 C-56.84878759 267.22767609 -53.76893961 252.74856092 -50.68625259 238.2700491 C-44.49309028 209.1823843 -38.32557386 180.08957783 -32.20675659 150.98617554 C-29.30675607 137.19454435 -26.39536235 123.40544296 -23.4609375 109.62109375 C-23.28907928 108.81374786 -23.11722107 108.00640198 -22.94015503 107.17459106 C-22.0932695 103.19675283 -21.24597213 99.21900247 -20.3984375 95.24130249 C-14.79208056 68.92835807 -9.20679668 42.61192479 -3.77880859 16.26147461 C-3.59264984 15.36076233 -3.40649109 14.46005005 -3.21469116 13.53204346 C-2.87619518 11.89374251 -2.53917348 10.25513587 -2.20401001 8.6161499 C-1.59610916 5.6764315 -0.95039175 2.85117526 0 0 Z " fill="#FE7F01" transform="translate(102,19)"/>
<path d="M0 0 C0.33 0.66 0.66 1.32 1 2 C-0.59025991 5.10100683 -2.2996944 7.76931277 -5 10 C-5.66 10 -6.32 10 -7 10 C-7.268125 10.61875 -7.53625 11.2375 -7.8125 11.875 C-9 14 -9 14 -12 16 C18.03 16 48.06 16 79 16 C79 16.66 79 17.32 79 18 C47.65 18 16.3 18 -16 18 C-14.31353217 14.62706435 -13.30850283 13.06653006 -10.7421875 10.546875 C-10.11699219 9.928125 -9.49179688 9.309375 -8.84765625 8.671875 C-8.19667969 8.03765625 -7.54570312 7.4034375 -6.875 6.75 C-6.21628906 6.1003125 -5.55757812 5.450625 -4.87890625 4.78125 C-3.25703357 3.18288273 -1.6306719 1.58938103 0 0 Z " fill="#1B5187" transform="translate(189,417)"/>
<path d="M0 0 C54.45 0 108.9 0 165 0 C162.75 6.75 162.75 6.75 160 9 C160.52268466 6.23723823 161.10869587 3.6739124 162 1 C81.81 1.495 81.81 1.495 0 2 C0 1.34 0 0.68 0 0 Z " fill="#E18729" transform="translate(102,19)"/>
<path d="M0 0 C0.33 0 0.66 0 1 0 C1.33 1.65 1.66 3.3 2 5 C73.28 5.495 73.28 5.495 146 6 C146 5.34 146 4.68 146 4 C146.99 4.495 146.99 4.495 148 5 C147.67 5.66 147.34 6.32 147 7 C98.16 7 49.32 7 -1 7 C-0.67 4.69 -0.34 2.38 0 0 Z " fill="#DB933D" transform="translate(15,428)"/>
<path d="M0 0 C0.33 0.66 0.66 1.32 1 2 C-0.59025991 5.10100683 -2.2996944 7.76931277 -5 10 C-5.66 10 -6.32 10 -7 10 C-7.268125 10.61875 -7.53625 11.2375 -7.8125 11.875 C-9 14 -9 14 -12 16 C-11.01 16.33 -10.02 16.66 -9 17 C-11.31 17.33 -13.62 17.66 -16 18 C-14.6415798 14.95667235 -13.11536976 12.87690849 -10.7421875 10.546875 C-10.11699219 9.928125 -9.49179688 9.309375 -8.84765625 8.671875 C-8.19667969 8.03765625 -7.54570312 7.4034375 -6.875 6.75 C-6.21628906 6.1003125 -5.55757812 5.450625 -4.87890625 4.78125 C-3.25703357 3.18288273 -1.6306719 1.58938103 0 0 Z " fill="#225D97" transform="translate(189,417)"/>
<path d="M0 0 C0.33 0 0.66 0 1 0 C0.67 2.97 0.34 5.94 0 9 C-0.99 9 -1.98 9 -3 9 C-3.09410156 9.55171875 -3.18820312 10.1034375 -3.28515625 10.671875 C-4.1916144 13.62405565 -5.66343518 15.72721344 -7.4375 18.25 C-8.05496094 19.14203125 -8.67242187 20.0340625 -9.30859375 20.953125 C-9.86675781 21.62859375 -10.42492187 22.3040625 -11 23 C-11.66 23 -12.32 23 -13 23 C-11.73450827 19.6487836 -10.29812102 16.63101496 -8.43359375 13.57421875 C-7.94826172 12.77822266 -7.46292969 11.98222656 -6.96289062 11.16210938 C-6.45951172 10.34548828 -5.95613281 9.52886719 -5.4375 8.6875 C-4.93025391 7.85154297 -4.42300781 7.01558594 -3.90039062 6.15429688 C-1.09345099 1.57573356 -1.09345099 1.57573356 0 0 Z " fill="#235E97" transform="translate(380,29)"/>
<path d="M0 0 C0.95465783 2.16967689 1.14401212 3.56328793 0.3984375 5.82421875 C-0.35870385 7.5684743 -1.17609198 9.28627131 -2 11 C-0.68 11.33 0.64 11.66 2 12 C0 14 0 14 -1.9453125 14.1953125 C-3.96354167 14.13020833 -5.98177083 14.06510417 -8 14 C-7.043419 12.22821947 -6.08467012 10.45760924 -5.125 8.6875 C-4.59132813 7.70136719 -4.05765625 6.71523437 -3.5078125 5.69921875 C-2 3 -2 3 0 0 Z " fill="#20568F" transform="translate(296,169)"/>
<path d="M0 0 C1.52519276 0.08937803 3.04681929 0.24537146 4.5625 0.4375 C5.80193359 0.59025391 5.80193359 0.59025391 7.06640625 0.74609375 C7.70449219 0.82988281 8.34257812 0.91367187 9 1 C9 1.33 9 1.66 9 2 C-2.73792839 3.66411137 -14.14894742 4.24949584 -26 4 C-26 3.67 -26 3.34 -26 3 C-24.8718689 2.91697632 -24.8718689 2.91697632 -23.72094727 2.83227539 C-20.33442771 2.58040283 -16.94847801 2.32154661 -13.5625 2.0625 C-12.37849609 1.97548828 -11.19449219 1.88847656 -9.97460938 1.79882812 C-8.84990234 1.71181641 -7.72519531 1.62480469 -6.56640625 1.53515625 C-5.52427979 1.456604 -4.48215332 1.37805176 -3.40844727 1.29711914 C-1.05206105 1.25713121 -1.05206105 1.25713121 0 0 Z " fill="#114B87" transform="translate(312,429)"/>
<path d="M0 0 C0.99 0.33 1.98 0.66 3 1 C1.63055898 3.94956528 0.12169591 6.52468811 -2 9 C-2.66 9 -3.32 9 -4 9 C-4 10.65 -4 12.3 -4 14 C-4.99 14.33 -5.98 14.66 -7 15 C-8.21869929 17.50447516 -8.21869929 17.50447516 -9 20 C-9.66 20 -10.32 20 -11 20 C-9.36047417 15.3606824 -6.93128948 11.36144142 -4.375 7.1875 C-3.95476562 6.49462891 -3.53453125 5.80175781 -3.1015625 5.08789062 C-2.0710533 3.38989252 -1.03598319 1.69466386 0 0 Z " fill="#22588F" transform="translate(336,102)"/>
<path d="M0 0 C0.33 0.66 0.66 1.32 1 2 C-1.82522609 6.67248931 -4.67760044 9.65996398 -9 13 C-9.66 12.34 -10.32 11.68 -11 11 C-7.37 7.37 -3.74 3.74 0 0 Z " fill="#19528D" transform="translate(288,317)"/>
<path d="M0 0 C0 4.07907331 -1.56697866 5.05743168 -4.3125 8 C-5.11300781 8.86625 -5.91351563 9.7325 -6.73828125 10.625 C-8.46978153 12.44322482 -10.21186378 14.23808278 -12 16 C-12.66 16.66 -13.32 17.32 -14 18 C-14.66 17.34 -15.32 16.68 -16 16 C-10.72 10.72 -5.44 5.44 0 0 Z " fill="#174E87" transform="translate(320,285)"/>
<path d="M0 0 C0 2.83967231 -0.40267181 5.23735711 -1 8 C-0.01 8.33 0.98 8.66 2 9 C0.68 9.33 -0.64 9.66 -2 10 C-2 9.34 -2 8.68 -2 8 C-3.1446875 8.495 -3.1446875 8.495 -4.3125 9 C-7 10 -7 10 -10 10 C-6.7 6.7 -3.4 3.4 0 0 Z " fill="#14508C" transform="translate(422,182)"/>
<path d="M0 0 C1.65 0 3.3 0 5 0 C1.69984002 4.13937592 -1.17324411 7.58662205 -6 10 C-5.67 8.35 -5.34 6.7 -5 5 C-4.01 4.67 -3.02 4.34 -2 4 C-2 3.34 -2 2.68 -2 2 C-1.34 2 -0.68 2 0 2 C0 1.34 0 0.68 0 0 Z " fill="#1E5A93" transform="translate(459,368)"/>
<path d="M0 0 C0.33 0 0.66 0 1 0 C1.02689216 1.47906892 1.04634621 2.95827483 1.0625 4.4375 C1.07410156 5.26121094 1.08570313 6.08492188 1.09765625 6.93359375 C1 9 1 9 0 10 C-0.23287008 11.68183948 -0.41264166 13.3712416 -0.5625 15.0625 C-0.68818359 16.44115234 -0.68818359 16.44115234 -0.81640625 17.84765625 C-0.87699219 18.55792969 -0.93757813 19.26820313 -1 20 C-1.66 20 -2.32 20 -3 20 C-3.33 20.66 -3.66 21.32 -4 22 C-3.25403037 14.5403037 -1.63253871 7.31048782 0 0 Z " fill="#ED8C27" transform="translate(48,273)"/>
<path d="M0 0 C1.62433191 2.50076998 2.07333427 3.58982529 1.5390625 6.578125 C1.23742187 7.45984375 0.93578125 8.3415625 0.625 9.25 C0.32851563 10.14203125 0.03203125 11.0340625 -0.2734375 11.953125 C-0.51320313 12.62859375 -0.75296875 13.3040625 -1 14 C-1.33 14 -1.66 14 -2 14 C-2.33 10.04 -2.66 6.08 -3 2 C-2.01 1.34 -1.02 0.68 0 0 Z " fill="#1B5796" transform="translate(523,265)"/>
<path d="M0 0 C0.33 0 0.66 0 1 0 C1.05406122 1.93719378 1.09282025 3.87481921 1.125 5.8125 C1.14820313 6.89144531 1.17140625 7.97039062 1.1953125 9.08203125 C1 12 1 12 -1 15 C-1.70164642 16.98799818 -2.37372872 18.98698517 -3 21 C-4.2825732 18.4348536 -3.83262969 17.42104404 -3.22265625 14.6484375 C-3.03896484 13.79765625 -2.85527344 12.946875 -2.66601562 12.0703125 C-2.46685547 11.18085938 -2.26769531 10.29140625 -2.0625 9.375 C-1.86720703 8.4778125 -1.67191406 7.580625 -1.47070312 6.65625 C-0.98652104 4.43609799 -0.49605031 2.2175251 0 0 Z " fill="#EC8C28" transform="translate(20,405)"/>
<path d="M0 0 C0.33 1.32 0.66 2.64 1 4 C-0.32 4.99 -1.64 5.98 -3 7 C-2.01 7.33 -1.02 7.66 0 8 C-2.31 8.33 -4.62 8.66 -7 9 C-5.44499019 5.18315774 -2.96404505 2.80804268 0 0 Z " fill="#2F6297" transform="translate(180,426)"/>
<path d="M0 0 C0.66 0 1.32 0 2 0 C0.23570801 4.97209562 -2.3939166 9.43438061 -5 14 C-5.33 14 -5.66 14 -6 14 C-6 12.02 -6 10.04 -6 8 C-5.01 7.67 -4.02 7.34 -3 7 C-2.26676204 4.98491642 -2.26676204 4.98491642 -2 3 C-1.34 3 -0.68 3 0 3 C0 2.01 0 1.02 0 0 Z " fill="#EE8E2A" transform="translate(159,215)"/>
<path d="M0 0 C3.7910119 1.44950455 7.3874638 3.15172566 11 5 C11 5.33 11 5.66 11 6 C7.37 6 3.74 6 0 6 C0 4.02 0 2.04 0 0 Z " fill="#1E5890" transform="translate(430,41)"/>
<path d="M0 0 C2.97 0.495 2.97 0.495 6 1 C2.80009492 3.74277578 -0.00499382 5.6302836 -4 7 C-4.33 5.68 -4.66 4.36 -5 3 C-4.360625 2.87625 -3.72125 2.7525 -3.0625 2.625 C-2.0415625 2.315625 -2.0415625 2.315625 -1 2 C-0.67 1.34 -0.34 0.68 0 0 Z " fill="#1A5590" transform="translate(421,394)"/>
<path d="M0 0 C4.875 4.75 4.875 4.75 6 7 C4.02 7.33 2.04 7.66 0 8 C-1.125 6.25 -1.125 6.25 -2 4 C-1.125 1.75 -1.125 1.75 0 0 Z " fill="#125391" transform="translate(491,87)"/>
<path d="M0 0 C0 3.84052912 -0.90767691 5.79177126 -3 9 C-6.1875 9.875 -6.1875 9.875 -9 10 C-8.06409496 8.8944811 -7.12620142 7.79064547 -6.1875 6.6875 C-5.66542969 6.07261719 -5.14335937 5.45773438 -4.60546875 4.82421875 C-3.12827531 3.14575321 -1.59960869 1.56117966 0 0 Z " fill="#19548D" transform="translate(406,198)"/>
<path d="M0 0 C1.63001953 0.01353516 1.63001953 0.01353516 3.29296875 0.02734375 C4.12441406 0.03894531 4.95585937 0.05054688 5.8125 0.0625 C2.95771674 1.96568884 1.39308692 2.5244099 -1.875 3.1875 C-2.68324219 3.35507812 -3.49148438 3.52265625 -4.32421875 3.6953125 C-4.93910156 3.81648438 -5.55398438 3.93765625 -6.1875 4.0625 C-6.1875 3.4025 -6.1875 2.7425 -6.1875 2.0625 C-7.1775 1.7325 -8.1675 1.4025 -9.1875 1.0625 C-5.90230525 -0.03256492 -3.45086585 -0.03710608 0 0 Z " fill="#1D5993" transform="translate(371.1875,416.9375)"/>
<path d="M0 0 C0.33 0 0.66 0 1 0 C0.67 2.97 0.34 5.94 0 9 C-1.65 9 -3.3 9 -5 9 C-3.35 6.03 -1.7 3.06 0 0 Z " fill="#1D5691" transform="translate(380,29)"/>
<path d="M0 0 C0.33 0.66 0.66 1.32 1 2 C-1.78999451 5.48749314 -4.25235831 8.50157221 -8 11 C-8.66 10.67 -9.32 10.34 -10 10 C-6.7 6.7 -3.4 3.4 0 0 Z " fill="#114D87" transform="translate(219,387)"/>
<path d="M0 0 C0.66 0 1.32 0 2 0 C1.39254603 4.85963179 -0.72758967 8.7405518 -3 13 C-3.33 13 -3.66 13 -4 13 C-4 11.35 -4 9.7 -4 8 C-3.34 8 -2.68 8 -2 8 C-2 6.35 -2 4.7 -2 3 C-1.34 3 -0.68 3 0 3 C0 2.01 0 1.02 0 0 Z " fill="#EE8D25" transform="translate(211,322)"/>
<path d="M0 0 C0 3.99476331 -1.28869085 5.1421336 -4 8 C-6.75 9.3125 -6.75 9.3125 -9 10 C-9 8 -9 8 -6.625 5.375 C-4 3 -4 3 -2 3 C-2 2.34 -2 1.68 -2 1 C-1.34 0.67 -0.68 0.34 0 0 Z " fill="#2C5D96" transform="translate(332,273)"/>
<path d="M0 0 C0.33 0.66 0.66 1.32 1 2 C-0.21258505 5.23356015 -1.01284458 6.00856305 -4 8 C-4.66 8.99 -5.32 9.98 -6 11 C-6.71484375 9.234375 -6.71484375 9.234375 -7 7 C-5.56640625 5.078125 -5.56640625 5.078125 -3.5625 3.25 C-2.90378906 2.63640625 -2.24507813 2.0228125 -1.56640625 1.390625 C-1.04949219 0.93171875 -0.53257812 0.4728125 0 0 Z " fill="#175590" transform="translate(380,224)"/>
<path d="M0 0 C0.33 0.66 0.66 1.32 1 2 C1.66 2 2.32 2 3 2 C2.67 3.32 2.34 4.64 2 6 C0.68 6 -0.64 6 -2 6 C-2.33 6.99 -2.66 7.98 -3 9 C-3.66 8.67 -4.32 8.34 -5 8 C-3.35 5.36 -1.7 2.72 0 0 Z " fill="#1F5C99" transform="translate(315,137)"/>
<path d="M0 0 C0.66 0.33 1.32 0.66 2 1 C1.39254603 5.85963179 -0.72758967 9.7405518 -3 14 C-4.25955231 10.22134307 -3.48087189 8.96588214 -2.0625 5.3125 C-1.68222656 4.31863281 -1.30195313 3.32476562 -0.91015625 2.30078125 C-0.60980469 1.54152344 -0.30945313 0.78226562 0 0 Z " fill="#ED8C29" transform="translate(193,360)"/>
<path d="M0 0 C0.99 0.33 1.98 0.66 3 1 C0.69 4.3 -1.62 7.6 -4 11 C-4.33 9.68 -4.66 8.36 -5 7 C-3.125 4.9375 -3.125 4.9375 -1 3 C-0.67 2.01 -0.34 1.02 0 0 Z " fill="#32649A" transform="translate(497,326)"/>
<path d="M0 0 C0.99 0.66 1.98 1.32 3 2 C1.02 2.99 1.02 2.99 -1 4 C-0.67 5.32 -0.34 6.64 0 8 C-1.65 8.33 -3.3 8.66 -5 9 C-3.35 6.03 -1.7 3.06 0 0 Z " fill="#2E699D" transform="translate(366,52)"/>
<path d="M0 0 C0.33 0 0.66 0 1 0 C2.38766322 6.05525768 1.49118146 9.32010626 -1 15 C-1.33 15 -1.66 15 -2 15 C-1.03644647 4.44191344 -1.03644647 4.44191344 0 0 Z " fill="#EE8B2C" transform="translate(101,22)"/>
<path d="M0 0 C0 3.20395416 -0.74335022 5.09399739 -2 8 C-3.65 8 -5.3 8 -7 8 C-6.02133662 6.85373678 -5.04205413 5.70800212 -4.0625 4.5625 C-3.51722656 3.92441406 -2.97195312 3.28632813 -2.41015625 2.62890625 C-1.63204305 1.73008851 -0.84063472 0.84063472 0 0 Z " fill="#0C4A87" transform="translate(232,374)"/>
<path d="M0 0 C0.33 0 0.66 0 1 0 C1.08114106 1.77007714 1.13925505 3.54122098 1.1875 5.3125 C1.23970703 6.79169922 1.23970703 6.79169922 1.29296875 8.30078125 C1 11 1 11 -0.51171875 12.85546875 C-1.00285156 13.23316406 -1.49398437 13.61085937 -2 14 C-1.03644647 4.58997722 -1.03644647 4.58997722 0 0 Z " fill="#EC8B26" transform="translate(76,140)"/>
<path d="M0 0 C0.66 1.32 1.32 2.64 2 4 C1.360625 4.226875 0.72125 4.45375 0.0625 4.6875 C-2.27193661 5.85250896 -2.27193661 5.85250896 -2.75 8.625 C-2.8325 9.40875 -2.915 10.1925 -3 11 C-3.66 10.67 -4.32 10.34 -5 10 C-3.66511872 6.40608886 -2.03977277 3.24509304 0 0 Z " fill="#316396" transform="translate(352,75)"/>
<path d="M0 0 C0.99 0 1.98 0 3 0 C1.61122646 3.35620271 0.08322035 5.07298728 -3 7 C-3.66 7 -4.32 7 -5 7 C-5 6.01 -5 5.02 -5 4 C-3.35 3.67 -1.7 3.34 0 3 C0 2.01 0 1.02 0 0 Z " fill="#255B95" transform="translate(449,377)"/>
<path d="M0 0 C0.66 0.66 1.32 1.32 2 2 C0.68 4.97 -0.64 7.94 -2 11 C-2.66 11 -3.32 11 -4 11 C-3.34 8.36 -2.68 5.72 -2 3 C-1.34 3 -0.68 3 0 3 C0 2.01 0 1.02 0 0 Z " fill="#2B6297" transform="translate(513,296)"/>
<path d="M0 0 C0.66 0 1.32 0 2 0 C0.77472971 4.05281712 -0.69880494 7.44360764 -3 11 C-4.24546405 8.50907189 -3.7767578 7.58919267 -3 5 C-2.34 5 -1.68 5 -1 5 C-0.67 3.35 -0.34 1.7 0 0 Z " fill="#EC902F" transform="translate(234,76)"/>
<path d="M0 0 C1.98 0.66 3.96 1.32 6 2 C4.75 3.5625 4.75 3.5625 3 5 C0.8125 4.6875 0.8125 4.6875 -1 4 C-0.67 2.68 -0.34 1.36 0 0 Z " fill="#185591" transform="translate(403,402)"/>
<path d="M0 0 C1 2 1 2 0.4375 4 C-1.57302108 6.79724672 -3.74418077 7.15065585 -7 8 C-6.02133662 6.85373678 -5.04205413 5.70800212 -4.0625 4.5625 C-3.51722656 3.92441406 -2.97195313 3.28632813 -2.41015625 2.62890625 C-1.63204305 1.73008851 -0.84063472 0.84063472 0 0 Z " fill="#4577A1" transform="translate(261,344)"/>
<path d="M0 0 C0 3.20395416 -0.74335022 5.09399739 -2 8 C-3.65 8 -5.3 8 -7 8 C-6.02133662 6.85373678 -5.04205413 5.70800212 -4.0625 4.5625 C-3.51722656 3.92441406 -2.97195313 3.28632813 -2.41015625 2.62890625 C-1.63204305 1.73008851 -0.84063472 0.84063472 0 0 Z " fill="#36689D" transform="translate(361,243)"/>
<path d="M0 0 C0.66 0.33 1.32 0.66 2 1 C0.84414715 4.91211733 -0.35534962 7.8745041 -3 11 C-3 9.35 -3 7.7 -3 6 C-2.34 6 -1.68 6 -1 6 C-0.67 4.02 -0.34 2.04 0 0 Z " fill="#EF912D" transform="translate(195,147)"/>
<path d="M0 0 C0.66 0 1.32 0 2 0 C0.55049545 3.7910119 -1.15172566 7.3874638 -3 11 C-4 8 -4 8 -3.22265625 5.95703125 C-2.83980469 5.24933594 -2.45695313 4.54164062 -2.0625 3.8125 C-1.68222656 3.09707031 -1.30195313 2.38164063 -0.91015625 1.64453125 C-0.60980469 1.10183594 -0.30945313 0.55914062 0 0 Z " fill="#EC9333" transform="translate(243,60)"/>
<path d="M0 0 C0.78890625 0.12761719 1.5778125 0.25523437 2.390625 0.38671875 C3.18984375 0.50660156 3.9890625 0.62648438 4.8125 0.75 C5.41578125 0.85699219 6.0190625 0.96398437 6.640625 1.07421875 C6.640625 1.40421875 6.640625 1.73421875 6.640625 2.07421875 C0.205625 2.56921875 0.205625 2.56921875 -6.359375 3.07421875 C-2.359375 0.07421875 -2.359375 0.07421875 0 0 Z " fill="#2B6093" transform="translate(314.359375,428.92578125)"/>
<path d="M0 0 C0.66 0 1.32 0 2 0 C1.46930939 3.82097239 0.50298434 6.06171403 -2 9 C-2 7.02 -2 5.04 -2 3 C-1.34 3 -0.68 3 0 3 C0 2.01 0 1.02 0 0 Z " fill="#ED8D2B" transform="translate(175,400)"/>
<path d="M0 0 C-0.66 1.32 -1.32 2.64 -2 4 C-2.66 4 -3.32 4 -4 4 C-4 4.66 -4 5.32 -4 6 C-4.66 6 -5.32 6 -6 6 C-5.6875 4.125 -5.6875 4.125 -5 2 C-2 0 -2 0 0 0 Z " fill="#21539A" transform="translate(239,369)"/>
<path d="M0 0 C0.66 0 1.32 0 2 0 C0.90931332 3.77545388 0.0916909 6.47043472 -3 9 C-2.44271087 5.65626525 -1.64826111 2.96687001 0 0 Z " fill="#EA913C" transform="translate(265,19)"/>
<path d="M0 0 C-2.6855594 2.6855594 -5.37621328 3.06049974 -9 4 C-8.67 3.01 -8.34 2.02 -8 1 C-5.29120665 -0.35439668 -2.99066732 -0.06501451 0 0 Z " fill="#275F95" transform="translate(396,410)"/>
<path d="M0 0 C0.33 1.32 0.66 2.64 1 4 C-0.32 4.99 -1.64 5.98 -3 7 C-3.33 6.01 -3.66 5.02 -4 4 C-2.68 2.68 -1.36 1.36 0 0 Z " fill="#336A9E" transform="translate(266,339)"/>
<path d="M0 0 C0.33 1.32 0.66 2.64 1 4 C0.34 4 -0.32 4 -1 4 C-1 4.66 -1 5.32 -1 6 C-2.32 5.67 -3.64 5.34 -5 5 C-3.35 3.35 -1.7 1.7 0 0 Z " fill="#1E558D" transform="translate(367,237)"/>
<path d="M0 0 C0.33 1.32 0.66 2.64 1 4 C0.01 4.66 -0.98 5.32 -2 6 C-2.99 5.67 -3.98 5.34 -5 5 C-3.35 3.35 -1.7 1.7 0 0 Z " fill="#1D568D" transform="translate(386,218)"/>
<path d="M0 0 C1.32 0 2.64 0 4 0 C2.92598892 2.91517292 2.22189824 4.77810176 0 7 C0 4.69 0 2.38 0 0 Z " fill="#EE8A25" transform="translate(163,204)"/>
<path d="M0 0 C1.70884005 1.62339805 3.37446717 3.29319053 5 5 C5 5.66 5 6.32 5 7 C3.68 7 2.36 7 1 7 C0.67 4.69 0.34 2.38 0 0 Z " fill="#3A6F9F" transform="translate(497,94)"/>
<path d="M0 0 C1.65 0 3.3 0 5 0 C4.67 1.32 4.34 2.64 4 4 C2.35 4 0.7 4 -1 4 C-0.67 2.68 -0.34 1.36 0 0 Z " fill="#145599" transform="translate(355,70)"/>
</svg>
